#!OML:ASF F:\twosubjects\two\Thursday\Session 1\justin.ASF
:FULLY-SPECIFIED
:DEGREES
505
root 5.62211 17.4263 -8.05925 21.3936 5.79782 4.42422
lowerback 24.2829 -0.00537846 -1.98005
upperback 5.2966 -0.346987 1.23727
thorax -7.64568 -0.106473 2.59663
lowerneck -19.9291 -5.36583 -12.8315
upperneck 14.1739 -5.23469 8.4138
head 8.23382 -2.3574 4.24757
rclavicle 1.47101e-014 -8.74653e-015
rhumerus -10.8412 33.4454 -86.7373
rradius 52.573
rwrist 16.9777
rhand -50.2721 36.8682
rfingers 7.12502
rthumb -22.8502 8.2019
lclavicle 1.47101e-014 -8.74653e-015
lhumerus -2.4179 -38.7674 83.537
lradius 44.2621
lwrist -34.2477
lhand -28.0305 56.9829
lfingers 7.12502
lthumb -1.41535 -273.042
rfemur -43.7938 -11.3878 5.82796
rtibia 40.2797
rfoot -11.5886 -14.0678
rtoes -18.0715
lfemur -29.7923 0.948772 -3.04749
ltibia 36.9608
lfoot -9.00416 -11.0341
ltoes -24.351
506
root 5.67582 17.4096 -8.10493 21.0728 4.98776 4.05139
lowerback 24.3619 0.178127 -2.04527
upperback 5.27622 -0.123579 1.33709
thorax -7.72119 0.00115474 2.67834
lowerneck -18.9694 -5.28062 -13.032
upperneck 13.3207 -5.17462 8.53735
head 7.78806 -2.33953 4.32871
rclavicle -1.43125e-014 -1.23246e-014
rhumerus -10.8105 33.2015 -86.6691
rradius 52.1525
rwrist 18.1705
rhand -53.4099 37.289
rfingers 7.12502
rthumb -25.8583 9.02698
lclavicle -1.43125e-014 -1.23246e-014
lhumerus -3.01625 -38.8227 84.0568
lradius 44.2469
lwrist -34.0954
lhand -27.9485 57.3343
lfingers 7.12502
lthumb -1.33616 -272.69
rfemur -43.7361 -10.5759 5.7465
rtibia 39.8835
rfoot -11.6492 -13.8831
rtoes -16.939
lfemur -29.0368 1.1458 -2.93075
ltibia 37.689
lfoot -8.85698 -11.8893
ltoes -23.7903
507
root 5.73215 17.3954 -8.15576 20.7895 4.34971 3.75256
lowerback 24.3008 0.280557 -2.03346
upperback 5.32532 0.0134063 1.388
thorax -7.64385 0.0632884 2.68527
lowerneck -19.8971 -5.03871 -11.9329
upperneck 14.1443 -4.87143 7.49894
head 8.12777 -2.22666 3.83516
rclavicle -5.56597e-015 -2.66371e-014
rhumerus -10.6461 33.0997 -86.6072
rradius 51.4756
rwrist 18.9054
rhand -53.9454 39.2991
rfingers 7.12502
rthumb -26.371 11.1129
lclavicle -5.56597e-015 -2.66371e-014
lhumerus -3.46696 -38.4999 84.5211
lradius 44.1799
lwrist -34.6387
lhand -26.9812 57.1651
lfingers 7.12502
lthumb -0.401938 -272.855
rfemur -43.6185 -10.0066 5.65744
rtibia 39.4747
rfoot -11.6114 -13.6462
rtoes -16.2445
lfemur -28.3122 1.23508 -2.88966
ltibia 38.3786
lfoot -8.61668 -12.9014
ltoes -23.4375
508
root 5.79934 17.3776 -8.21498 20.7424 4.03219 3.4744
lowerback 24.0328 0.214152 -1.78793
upperback 5.31838 -0.00119151 1.48935
thorax -7.51375 0.0498342 2.65695
lowerneck -19.9772 -4.95635 -11.5018
upperneck 14.289 -4.82683 7.2304
head 8.16668 -2.20818 3.67982
rclavicle 1.19271e-015 8.74653e-015
rhumerus -10.5014 33.2017 -86.478
rradius 51.0792
rwrist 18.8701
rhand -54.082 38.9218
rfingers 7.12502
rthumb -26.5018 10.7552
lclavicle 1.19271e-015 8.74653e-015
lhumerus -4.05941 -37.922 85.1461
lradius 44.2283
lwrist -35.193
lhand -26.3563 57.4116
lfingers 7.12502
lthumb 0.201596 -272.609
rfemur -43.6684 -9.97457 5.69032
rtibia 39.0471
rfoot -11.1447 -13.3065
rtoes -16.1974
lfemur -27.9961 1.1364 -2.84065
ltibia 39.0321
lfoot -7.8012 -14.2717
ltoes -21.5977
509
root 5.87189 17.364 -8.27149 20.721 3.78738 3.07387
lowerback 23.8087 0.0862736 -1.4291
upperback 5.26689 -0.0616917 1.67814
thorax -7.45273 0.014641 2.67364
lowerneck -20.014 -5.12786 -12.1143
upperneck 14.4855 -5.04003 8.00696
head 8.29952 -2.26697 4.02033
rclavicle -1.55052e-014 8.74653e-015
rhumerus -10.5011 33.2695 -86.3141
rradius 50.9564
rwrist 19.2415
rhand -50.5598 39.8356
rfingers 7.12502
rthumb -23.1263 11.2037
lclavicle -1.55052e-014 8.74653e-015
lhumerus -4.68335 -37.2356 85.8181
lradius 44.3243
lwrist -35.5612
lhand -26.0784 57.9664
lfingers 7.12502
lthumb 0.470035 -272.054
rfemur -43.7303 -9.81471 5.7811
rtibia 38.6206
rfoot -10.4285 -13.0491
rtoes -17.069
lfemur -27.7362 0.952133 -2.61922
ltibia 39.5432
lfoot -7.09083 -15.2186
ltoes -19.4762
510
root 5.94551 17.3501 -8.32168 20.5134 3.39873 2.77841
lowerback 23.7647 -0.0114801 -1.21042
upperback 5.23332 -0.1274 1.78053
thorax -7.46409 -0.0203674 2.6795
lowerneck -19.2696 -5.07985 -12.6488
upperneck 13.8614 -5.04425 8.81302
head 8.00131 -2.22976 4.38424
rclavicle -9.54166e-015 -6.36111e-015
rhumerus -10.5444 33.4348 -86.1956
rradius 50.7718
rwrist 19.8094
rhand -52.9462 41.1288
rfingers 7.12502
rthumb -25.4142 12.8028
lclavicle -9.54166e-015 -6.36111e-015
lhumerus -5.1774 -36.7086 86.3151
lradius 44.1883
lwrist -35.8531
lhand -26.5898 58.4026
lfingers 7.12502
lthumb -0.0239051 -271.618
rfemur -43.6169 -9.38339 5.63142
rtibia 38.2144
rfoot -9.96466 -12.8719
rtoes -17.5527
lfemur -27.098 0.863634 -2.61948
ltibia 39.8078
lfoot -7.43857 -15.4628
ltoes -20.1657
511
root 6.01805 17.3284 -8.37393 20.2602 2.80896 2.85615
lowerback 23.7492 -0.0269015 -1.33636
upperback 5.27135 -0.186969 1.69884
thorax -7.41053 -0.0489108 2.6792
lowerneck -18.5599 -4.77232 -12.389
upperneck 13.1539 -4.77393 8.93953
head 7.6115 -2.08551 4.41681
rclavicle 1.03368e-014 -1.98785e-015
rhumerus -10.3886 33.7424 -86.1262
rradius 50.408
rwrist 19.5822
rhand -53.6868 42.2662
rfingers 7.12502
rthumb -26.1235 14.0432
lclavicle 1.03368e-014 -1.98785e-015
lhumerus -5.44555 -36.6212 86.537
lradius 43.9653
lwrist -35.7594
lhand -27.5279 58.7382
lfingers 7.12502
lthumb -0.929915 -271.284
rfemur -43.4958 -9.00034 5.09119
rtibia 37.8019
rfoot -9.65771 -12.6812
rtoes -17.8843
lfemur -26.2736 0.808953 -3.1614
ltibia 39.7878
lfoot -7.97416 -15.4272
ltoes -23.0263
512
root 6.09186 17.3109 -8.42778 20.1319 2.24747 2.84945
lowerback 23.5555 -0.0228961 -1.49823
upperback 5.37446 -0.218807 1.73273
thorax -7.19424 -0.066035 2.81464
lowerneck -19.1026 -4.43695 -11.6596
upperneck 13.5323 -4.39099 8.52387
head 7.75723 -1.89509 4.2068
rclavicle 7.55382e-015 -3.57812e-015
rhumerus -9.92869 34.1937 -85.821
rradius 49.9106
rwrist 19.1901
rhand -53.7686 43.3397
rfingers 7.12502
rthumb -26.2018 15.1283
lclavicle 7.55382e-015 -3.57812e-015
lhumerus -5.64618 -36.478 86.8042
lradius 43.9542
lwrist -35.5651
lhand -27.7475 59.181
lfingers 7.12502
lthumb -1.14201 -270.842
rfemur -43.5017 -8.65615 4.68251
rtibia 37.3814
rfoot -9.23633 -12.4514
rtoes -18.771
lfemur -25.5452 0.643791 -3.59289
ltibia 39.5156
lfoot -8.07146 -15.4202
ltoes -25.517
513
root 6.17517 17.3012 -8.47594 20.0191 1.6533 2.65093
lowerback 23.3065 0.0120109 -1.57903
upperback 5.39067 -0.174961 1.95393
thorax -7.04926 -0.0462719 3.08693
lowerneck -19.6743 -4.29436 -11.7526
upperneck 14.2739 -4.15672 8.62169
head 8.08042 -1.7734 4.29536
rclavicle -6.36111e-015 -1.55052e-014
rhumerus -9.80015 34.5513 -85.3186
rradius 49.7741
rwrist 19.6287
rhand -53.8992 43.2155
rfingers 7.12502
rthumb -26.3269 15.0227
lclavicle -6.36111e-015 -1.55052e-014
lhumerus -6.23398 -35.9309 87.6307
lradius 44.0422
lwrist -35.7138
lhand -27.3101 59.794
lfingers 7.12502
lthumb -0.719595 -270.227
rfemur -43.5137 -8.29849 4.452
rtibia 36.9357
rfoot -9.01827 -12.106
rtoes -18.1291
lfemur -24.6977 0.504638 -3.8723
ltibia 39.0202
lfoot -8.39787 -15.1638
ltoes -27.5211
